<svg xmlns="http://www.w3.org/2000/svg" xmlns:xlink="http://www.w3.org/1999/xlink" width="500" zoomAndPan="magnify" viewBox="0 0 375 374.999991" height="500" preserveAspectRatio="xMidYMid meet" version="1.0"><defs><g/></defs><g fill="#ffffff" fill-opacity="1"><g transform="translate(44.465062, 156.770431)"><g><path d="M 10.96875 -24.609375 C 17.175781 -24.609375 20.28125 -22.242188 20.28125 -17.515625 C 20.28125 -15.421875 19.546875 -13.707031 18.078125 -12.375 C 16.617188 -11.039062 14.878906 -10.375 12.859375 -10.375 C 10.847656 -10.375 9.140625 -10.703125 7.734375 -11.359375 L 7.734375 -7.953125 C 7.734375 -5.441406 7.804688 -3.726562 7.953125 -2.8125 C 8.109375 -1.894531 8.328125 -1.320312 8.609375 -1.09375 C 9.148438 -0.644531 10.007812 -0.421875 11.1875 -0.421875 L 11.25 0 L 1.765625 0 L 1.828125 -0.421875 C 3.003906 -0.421875 3.859375 -0.644531 4.390625 -1.09375 C 4.984375 -1.582031 5.28125 -3.867188 5.28125 -7.953125 L 5.28125 -16.671875 C 5.28125 -19.171875 5.203125 -20.878906 5.046875 -21.796875 C 4.890625 -22.710938 4.671875 -23.285156 4.390625 -23.515625 C 3.859375 -23.960938 3.003906 -24.1875 1.828125 -24.1875 L 1.765625 -24.609375 Z M 7.734375 -23.796875 L 7.734375 -12.234375 C 8.953125 -11.578125 10.382812 -11.25 12.03125 -11.25 C 13.6875 -11.25 15.019531 -11.769531 16.03125 -12.8125 C 17.039062 -13.851562 17.546875 -15.421875 17.546875 -17.515625 C 17.546875 -20.109375 16.703125 -21.84375 15.015625 -22.71875 C 13.628906 -23.4375 11.960938 -23.796875 10.015625 -23.796875 Z M 7.734375 -23.796875 "/></g></g></g><g fill="#ffffff" fill-opacity="1"><g transform="translate(72.024716, 156.770431)"><g><path d="M 15.578125 -0.421875 C 16.460938 -0.421875 17.085938 -0.488281 17.453125 -0.625 C 17.816406 -0.769531 18 -1.132812 18 -1.71875 C 18 -2.3125 17.378906 -4.304688 16.140625 -7.703125 L 5.421875 -7.703125 C 4.410156 -4.722656 3.90625 -2.851562 3.90625 -2.09375 C 3.90625 -1.332031 4.097656 -0.863281 4.484375 -0.6875 C 4.867188 -0.507812 5.566406 -0.421875 6.578125 -0.421875 L 6.640625 0 L -1.265625 0 L -1.203125 -0.421875 C -0.515625 -0.421875 0.0195312 -0.476562 0.40625 -0.59375 C 0.789062 -0.71875 1.210938 -1.03125 1.671875 -1.53125 C 2.128906 -2.03125 2.566406 -2.757812 2.984375 -3.71875 C 3.410156 -4.6875 3.914062 -6.035156 4.5 -7.765625 L 7.625 -16.8125 C 8.726562 -20 9.28125 -21.929688 9.28125 -22.609375 C 9.28125 -23.285156 9.113281 -23.722656 8.78125 -23.921875 C 8.457031 -24.117188 7.828125 -24.21875 6.890625 -24.21875 L 6.828125 -24.609375 L 12.625 -24.609375 L 18.84375 -7.765625 C 19.894531 -4.984375 20.601562 -3.21875 20.96875 -2.46875 C 21.332031 -1.71875 21.679688 -1.234375 22.015625 -1.015625 C 22.597656 -0.617188 23.332031 -0.421875 24.21875 -0.421875 L 24.296875 0 L 15.5 0 Z M 10.65625 -22.71875 L 5.703125 -8.546875 L 15.859375 -8.546875 Z M 10.65625 -22.71875 "/></g></g></g><g fill="#ffffff" fill-opacity="1"><g transform="translate(101.623123, 156.770431)"><g><path d="M 0.53125 -24.609375 L 20.78125 -24.609375 L 20.78125 -19.546875 L 20.421875 -19.625 C 20.421875 -22.476562 17.585938 -23.90625 11.921875 -23.90625 L 11.921875 -7.953125 C 11.921875 -4.484375 12.117188 -2.375 12.515625 -1.625 C 12.660156 -1.34375 12.90625 -1.09375 13.25 -0.875 C 13.601562 -0.664062 13.976562 -0.535156 14.375 -0.484375 C 14.78125 -0.441406 15.332031 -0.421875 16.03125 -0.421875 L 16.109375 0 L 5.28125 0 L 5.34375 -0.421875 C 6.050781 -0.421875 6.609375 -0.4375 7.015625 -0.46875 C 7.421875 -0.507812 7.796875 -0.644531 8.140625 -0.875 C 8.484375 -1.113281 8.726562 -1.359375 8.875 -1.609375 C 9.03125 -1.867188 9.164062 -2.328125 9.28125 -2.984375 C 9.394531 -3.785156 9.453125 -5.441406 9.453125 -7.953125 L 9.453125 -23.90625 C 3.785156 -23.90625 0.953125 -22.476562 0.953125 -19.625 L 0.53125 -19.546875 Z M 0.53125 -24.609375 "/></g></g></g><g fill="#ffffff" fill-opacity="1"><g transform="translate(129.499139, 156.770431)"><g><path d="M 19.71875 0 C 19.132812 0 18.554688 -0.296875 17.984375 -0.890625 C 17.410156 -1.492188 16.894531 -2.238281 16.4375 -3.125 C 15.976562 -4.019531 15.441406 -4.988281 14.828125 -6.03125 C 14.222656 -7.070312 13.613281 -8.050781 13 -8.96875 C 12.394531 -9.882812 11.625 -10.65625 10.6875 -11.28125 C 9.75 -11.914062 8.753906 -12.257812 7.703125 -12.3125 L 7.703125 -7.953125 C 7.703125 -5.421875 7.773438 -3.703125 7.921875 -2.796875 C 8.078125 -1.890625 8.296875 -1.320312 8.578125 -1.09375 C 9.140625 -0.644531 10.007812 -0.421875 11.1875 -0.421875 L 11.25 0 L 1.828125 0 L 1.90625 -0.421875 C 3.050781 -0.421875 3.894531 -0.632812 4.4375 -1.0625 C 4.875 -1.40625 5.128906 -2.550781 5.203125 -4.5 C 5.253906 -5.269531 5.28125 -6.421875 5.28125 -7.953125 L 5.28125 -16.84375 C 5.28125 -19.445312 5.207031 -21.171875 5.0625 -22.015625 C 4.925781 -22.859375 4.71875 -23.382812 4.4375 -23.59375 C 3.894531 -23.988281 3.050781 -24.1875 1.90625 -24.1875 L 1.828125 -24.609375 L 9.984375 -24.609375 C 15.890625 -24.609375 18.84375 -22.617188 18.84375 -18.640625 C 18.84375 -16.921875 18.238281 -15.484375 17.03125 -14.328125 C 15.820312 -13.171875 14.363281 -12.5 12.65625 -12.3125 C 14.363281 -11.300781 15.945312 -9.445312 17.40625 -6.75 C 17.96875 -5.695312 18.566406 -4.691406 19.203125 -3.734375 C 20.578125 -1.523438 22.359375 -0.421875 24.546875 -0.421875 L 24.609375 0 Z M 7.703125 -23.796875 L 7.703125 -13.015625 L 9.921875 -13.015625 C 11.703125 -13.015625 13.175781 -13.46875 14.34375 -14.375 C 15.519531 -15.289062 16.109375 -16.648438 16.109375 -18.453125 C 16.109375 -22.015625 14.066406 -23.796875 9.984375 -23.796875 Z M 7.703125 -23.796875 "/></g></g></g><g fill="#ffffff" fill-opacity="1"><g transform="translate(158.921792, 156.770431)"><g><path d="M 13.46875 -24.921875 C 17.238281 -24.921875 20.253906 -23.765625 22.515625 -21.453125 C 24.773438 -19.148438 25.90625 -16.164062 25.90625 -12.5 C 25.90625 -8.832031 24.8125 -5.769531 22.625 -3.3125 C 20.4375 -0.863281 17.46875 0.359375 13.71875 0.359375 C 9.96875 0.359375 6.945312 -0.867188 4.65625 -3.328125 C 2.375 -5.796875 1.234375 -8.863281 1.234375 -12.53125 C 1.234375 -16.195312 2.328125 -19.175781 4.515625 -21.46875 C 6.710938 -23.769531 9.695312 -24.921875 13.46875 -24.921875 Z M 13.6875 -0.453125 C 16.675781 -0.453125 18.953125 -1.535156 20.515625 -3.703125 C 22.078125 -5.878906 22.859375 -8.734375 22.859375 -12.265625 C 22.859375 -15.804688 22.035156 -18.664062 20.390625 -20.84375 C 18.753906 -23.03125 16.441406 -24.125 13.453125 -24.125 C 10.460938 -24.125 8.1875 -23.046875 6.625 -20.890625 C 5.070312 -18.734375 4.296875 -15.878906 4.296875 -12.328125 C 4.296875 -8.773438 5.113281 -5.90625 6.75 -3.71875 C 8.394531 -1.539062 10.707031 -0.453125 13.6875 -0.453125 Z M 13.6875 -0.453125 "/></g></g></g><g fill="#ffffff" fill-opacity="1"><g transform="translate(192.63288, 156.770431)"><g><path d="M 23.984375 -2.703125 C 21.285156 -0.660156 18.054688 0.359375 14.296875 0.359375 C 10.535156 0.359375 7.503906 -0.847656 5.203125 -3.265625 C 2.910156 -5.679688 1.765625 -8.691406 1.765625 -12.296875 C 1.765625 -15.910156 2.867188 -18.914062 5.078125 -21.3125 C 7.296875 -23.71875 10.28125 -24.921875 14.03125 -24.921875 C 15.757812 -24.921875 17.488281 -24.6875 19.21875 -24.21875 C 20.957031 -23.75 22.273438 -23.269531 23.171875 -22.78125 L 23.171875 -18.28125 L 22.78125 -18.359375 C 22.195312 -20.460938 21.179688 -21.945312 19.734375 -22.8125 C 18.296875 -23.6875 16.394531 -24.125 14.03125 -24.125 C 11.03125 -24.125 8.742188 -23.035156 7.171875 -20.859375 C 5.597656 -18.691406 4.8125 -15.863281 4.8125 -12.375 C 4.8125 -8.882812 5.644531 -6.0625 7.3125 -3.90625 C 8.976562 -1.75 11.3125 -0.671875 14.3125 -0.671875 C 16.46875 -0.671875 18.265625 -0.929688 19.703125 -1.453125 C 21.148438 -1.984375 22.578125 -2.753906 23.984375 -3.765625 Z M 23.984375 -2.703125 "/></g></g></g><g fill="#ffffff" fill-opacity="1"><g transform="translate(224.234901, 156.770431)"><g><path d="M 13.46875 -24.921875 C 17.238281 -24.921875 20.253906 -23.765625 22.515625 -21.453125 C 24.773438 -19.148438 25.90625 -16.164062 25.90625 -12.5 C 25.90625 -8.832031 24.8125 -5.769531 22.625 -3.3125 C 20.4375 -0.863281 17.46875 0.359375 13.71875 0.359375 C 9.96875 0.359375 6.945312 -0.867188 4.65625 -3.328125 C 2.375 -5.796875 1.234375 -8.863281 1.234375 -12.53125 C 1.234375 -16.195312 2.328125 -19.175781 4.515625 -21.46875 C 6.710938 -23.769531 9.695312 -24.921875 13.46875 -24.921875 Z M 13.6875 -0.453125 C 16.675781 -0.453125 18.953125 -1.535156 20.515625 -3.703125 C 22.078125 -5.878906 22.859375 -8.734375 22.859375 -12.265625 C 22.859375 -15.804688 22.035156 -18.664062 20.390625 -20.84375 C 18.753906 -23.03125 16.441406 -24.125 13.453125 -24.125 C 10.460938 -24.125 8.1875 -23.046875 6.625 -20.890625 C 5.070312 -18.734375 4.296875 -15.878906 4.296875 -12.328125 C 4.296875 -8.773438 5.113281 -5.90625 6.75 -3.71875 C 8.394531 -1.539062 10.707031 -0.453125 13.6875 -0.453125 Z M 13.6875 -0.453125 "/></g></g></g><g fill="#ffffff" fill-opacity="1"><g transform="translate(257.945989, 156.770431)"><g><path d="M 13.46875 -24.921875 C 17.238281 -24.921875 20.253906 -23.765625 22.515625 -21.453125 C 24.773438 -19.148438 25.90625 -16.164062 25.90625 -12.5 C 25.90625 -8.832031 24.8125 -5.769531 22.625 -3.3125 C 20.4375 -0.863281 17.46875 0.359375 13.71875 0.359375 C 9.96875 0.359375 6.945312 -0.867188 4.65625 -3.328125 C 2.375 -5.796875 1.234375 -8.863281 1.234375 -12.53125 C 1.234375 -16.195312 2.328125 -19.175781 4.515625 -21.46875 C 6.710938 -23.769531 9.695312 -24.921875 13.46875 -24.921875 Z M 13.6875 -0.453125 C 16.675781 -0.453125 18.953125 -1.535156 20.515625 -3.703125 C 22.078125 -5.878906 22.859375 -8.734375 22.859375 -12.265625 C 22.859375 -15.804688 22.035156 -18.664062 20.390625 -20.84375 C 18.753906 -23.03125 16.441406 -24.125 13.453125 -24.125 C 10.460938 -24.125 8.1875 -23.046875 6.625 -20.890625 C 5.070312 -18.734375 4.296875 -15.878906 4.296875 -12.328125 C 4.296875 -8.773438 5.113281 -5.90625 6.75 -3.71875 C 8.394531 -1.539062 10.707031 -0.453125 13.6875 -0.453125 Z M 13.6875 -0.453125 "/></g></g></g><g fill="#ffffff" fill-opacity="1"><g transform="translate(291.657077, 156.770431)"><g><path d="M 20.53125 0 C 19.332031 0 17.832031 -1.394531 16.03125 -4.1875 C 15.257812 -5.351562 14.457031 -6.519531 13.625 -7.6875 C 12.789062 -8.863281 11.859375 -9.875 10.828125 -10.71875 C 9.796875 -11.5625 8.765625 -12 7.734375 -12.03125 L 7.734375 -7.953125 C 7.734375 -4.429688 7.898438 -2.320312 8.234375 -1.625 C 8.367188 -1.34375 8.578125 -1.09375 8.859375 -0.875 C 9.140625 -0.664062 9.445312 -0.535156 9.78125 -0.484375 C 10.125 -0.441406 10.578125 -0.421875 11.140625 -0.421875 L 11.21875 0 L 1.765625 0 L 1.828125 -0.421875 C 3.003906 -0.421875 3.859375 -0.644531 4.390625 -1.09375 C 4.984375 -1.582031 5.28125 -3.867188 5.28125 -7.953125 L 5.28125 -16.671875 C 5.28125 -19.171875 5.203125 -20.882812 5.046875 -21.8125 C 4.890625 -22.738281 4.671875 -23.320312 4.390625 -23.5625 C 3.859375 -24 3.003906 -24.21875 1.828125 -24.21875 L 1.765625 -24.609375 L 11.21875 -24.609375 L 11.140625 -24.21875 C 10.578125 -24.21875 10.125 -24.191406 9.78125 -24.140625 C 9.445312 -24.097656 9.140625 -23.972656 8.859375 -23.765625 C 8.578125 -23.554688 8.367188 -23.3125 8.234375 -23.03125 C 8.109375 -22.75 8.015625 -22.289062 7.953125 -21.65625 C 7.804688 -20.625 7.734375 -18.960938 7.734375 -16.671875 L 7.734375 -12.65625 C 8.742188 -12.820312 9.945312 -13.484375 11.34375 -14.640625 C 12.738281 -15.804688 13.960938 -17.191406 15.015625 -18.796875 C 16.066406 -20.398438 16.59375 -21.820312 16.59375 -23.0625 C 16.59375 -23.457031 16.46875 -23.75 16.21875 -23.9375 C 15.976562 -24.125 15.53125 -24.21875 14.875 -24.21875 L 14.796875 -24.609375 L 23.515625 -24.609375 L 23.453125 -24.21875 C 20.992188 -24.21875 19.15625 -23.363281 17.9375 -21.65625 C 17.34375 -20.8125 16.773438 -19.925781 16.234375 -19 C 15.703125 -18.070312 14.890625 -17.003906 13.796875 -15.796875 C 12.710938 -14.597656 11.421875 -13.515625 9.921875 -12.546875 C 12.191406 -12.410156 14.039062 -11.535156 15.46875 -9.921875 C 16.332031 -8.984375 17.265625 -7.726562 18.265625 -6.15625 C 19.265625 -4.582031 20.046875 -3.445312 20.609375 -2.75 C 21.921875 -1.195312 23.5 -0.421875 25.34375 -0.421875 L 25.421875 0 Z M 20.53125 0 "/></g></g></g><g fill="#ffffff" fill-opacity="1"><g transform="translate(321.720392, 156.770431)"><g/></g></g><g fill="#d6be74" fill-opacity="1"><g transform="translate(84.030096, 193.58678)"><g/></g></g><g fill="#d6be74" fill-opacity="1"><g transform="translate(97.571964, 193.58678)"><g><path d="M 8.03125 0 C 7.800781 0 7.566406 -0.117188 7.328125 -0.359375 C 7.097656 -0.609375 6.890625 -0.910156 6.703125 -1.265625 C 6.515625 -1.628906 6.296875 -2.023438 6.046875 -2.453125 C 5.796875 -2.878906 5.546875 -3.28125 5.296875 -3.65625 C 5.046875 -4.03125 4.726562 -4.34375 4.34375 -4.59375 C 3.96875 -4.851562 3.566406 -4.992188 3.140625 -5.015625 L 3.140625 -3.234375 C 3.140625 -2.203125 3.171875 -1.503906 3.234375 -1.140625 C 3.296875 -0.773438 3.382812 -0.539062 3.5 -0.4375 C 3.726562 -0.257812 4.082031 -0.171875 4.5625 -0.171875 L 4.578125 0 L 0.75 0 L 0.78125 -0.171875 C 1.238281 -0.171875 1.582031 -0.257812 1.8125 -0.4375 C 1.988281 -0.570312 2.09375 -1.035156 2.125 -1.828125 C 2.144531 -2.148438 2.15625 -2.617188 2.15625 -3.234375 L 2.15625 -6.859375 C 2.15625 -7.921875 2.125 -8.625 2.0625 -8.96875 C 2.007812 -9.3125 1.925781 -9.523438 1.8125 -9.609375 C 1.582031 -9.773438 1.238281 -9.859375 0.78125 -9.859375 L 0.75 -10.03125 L 4.0625 -10.03125 C 6.476562 -10.03125 7.6875 -9.21875 7.6875 -7.59375 C 7.6875 -6.894531 7.4375 -6.304688 6.9375 -5.828125 C 6.445312 -5.359375 5.851562 -5.085938 5.15625 -5.015625 C 5.851562 -4.609375 6.5 -3.851562 7.09375 -2.75 C 7.320312 -2.320312 7.566406 -1.910156 7.828125 -1.515625 C 8.390625 -0.617188 9.113281 -0.171875 10 -0.171875 L 10.03125 0 Z M 3.140625 -9.703125 L 3.140625 -5.296875 L 4.046875 -5.296875 C 4.765625 -5.296875 5.363281 -5.484375 5.84375 -5.859375 C 6.320312 -6.234375 6.5625 -6.785156 6.5625 -7.515625 C 6.5625 -8.972656 5.726562 -9.703125 4.0625 -9.703125 Z M 3.140625 -9.703125 "/></g></g></g><g fill="#d6be74" fill-opacity="1"><g transform="translate(116.836527, 193.58678)"><g><path d="M 7.9375 0 L 0.71875 0 L 0.75 -0.171875 C 1.226562 -0.171875 1.578125 -0.257812 1.796875 -0.4375 C 2.035156 -0.644531 2.15625 -1.578125 2.15625 -3.234375 L 2.15625 -6.796875 C 2.15625 -7.816406 2.125 -8.515625 2.0625 -8.890625 C 2 -9.265625 1.910156 -9.5 1.796875 -9.59375 C 1.578125 -9.78125 1.226562 -9.875 0.75 -9.875 L 0.71875 -10.03125 L 7.40625 -10.03125 L 7.40625 -7.96875 L 7.234375 -8 C 7.234375 -8.632812 6.894531 -9.078125 6.21875 -9.328125 C 5.550781 -9.578125 4.523438 -9.703125 3.140625 -9.703125 L 3.140625 -5.1875 C 4.054688 -5.1875 4.710938 -5.234375 5.109375 -5.328125 C 5.515625 -5.421875 5.773438 -5.566406 5.890625 -5.765625 C 6.003906 -5.960938 6.0625 -6.289062 6.0625 -6.75 L 6.21875 -6.78125 L 6.21875 -3.296875 L 6.0625 -3.328125 C 6.0625 -3.796875 6.003906 -4.125 5.890625 -4.3125 C 5.773438 -4.5 5.515625 -4.640625 5.109375 -4.734375 C 4.710938 -4.828125 4.054688 -4.875 3.140625 -4.875 L 3.140625 -3.015625 C 3.140625 -2.003906 3.175781 -1.332031 3.25 -1 C 3.320312 -0.664062 3.476562 -0.441406 3.71875 -0.328125 C 6.414062 -0.328125 7.765625 -0.898438 7.765625 -2.046875 L 7.9375 -2.078125 Z M 7.9375 0 "/></g></g></g><g fill="#d6be74" fill-opacity="1"><g transform="translate(135.613901, 193.58678)"><g><path d="M 1.171875 -3.03125 C 1.171875 -2.101562 1.394531 -1.394531 1.84375 -0.90625 C 2.300781 -0.425781 2.859375 -0.1875 3.515625 -0.1875 C 4.179688 -0.1875 4.722656 -0.34375 5.140625 -0.65625 C 5.566406 -0.976562 5.78125 -1.484375 5.78125 -2.171875 C 5.78125 -2.796875 5.445312 -3.351562 4.78125 -3.84375 C 4.5 -4.050781 4.179688 -4.253906 3.828125 -4.453125 C 3.472656 -4.660156 3.117188 -4.875 2.765625 -5.09375 C 2.410156 -5.320312 2.09375 -5.550781 1.8125 -5.78125 C 1.144531 -6.34375 0.8125 -6.992188 0.8125 -7.734375 C 0.8125 -8.472656 1.082031 -9.0625 1.625 -9.5 C 2.164062 -9.9375 2.878906 -10.15625 3.765625 -10.15625 C 4.660156 -10.15625 5.492188 -9.960938 6.265625 -9.578125 C 6.265625 -9.097656 6.191406 -8.273438 6.046875 -7.109375 L 5.828125 -7.171875 C 5.828125 -8.066406 5.609375 -8.734375 5.171875 -9.171875 C 4.734375 -9.617188 4.226562 -9.84375 3.65625 -9.84375 C 3.09375 -9.84375 2.640625 -9.675781 2.296875 -9.34375 C 1.953125 -9.019531 1.78125 -8.632812 1.78125 -8.1875 C 1.78125 -7.738281 1.898438 -7.351562 2.140625 -7.03125 C 2.378906 -6.707031 2.679688 -6.441406 3.046875 -6.234375 C 3.421875 -6.023438 3.820312 -5.789062 4.25 -5.53125 C 4.6875 -5.28125 5.085938 -5.03125 5.453125 -4.78125 C 5.816406 -4.539062 6.117188 -4.222656 6.359375 -3.828125 C 6.609375 -3.441406 6.734375 -3.003906 6.734375 -2.515625 C 6.734375 -1.640625 6.421875 -0.976562 5.796875 -0.53125 C 5.171875 -0.0820312 4.421875 0.140625 3.546875 0.140625 C 3.054688 0.140625 2.554688 0.0664062 2.046875 -0.078125 C 1.535156 -0.234375 1.113281 -0.460938 0.78125 -0.765625 C 0.78125 -1.367188 0.835938 -2.140625 0.953125 -3.078125 Z M 1.171875 -3.03125 "/></g></g></g><g fill="#d6be74" fill-opacity="1"><g transform="translate(153.087295, 193.58678)"><g><path d="M 0.21875 -10.03125 L 8.46875 -10.03125 L 8.46875 -7.96875 L 8.328125 -8 C 8.328125 -9.164062 7.171875 -9.75 4.859375 -9.75 L 4.859375 -3.234375 C 4.859375 -1.828125 4.9375 -0.96875 5.09375 -0.65625 C 5.15625 -0.539062 5.253906 -0.441406 5.390625 -0.359375 C 5.535156 -0.273438 5.691406 -0.222656 5.859375 -0.203125 C 6.023438 -0.179688 6.25 -0.171875 6.53125 -0.171875 L 6.5625 0 L 2.15625 0 L 2.171875 -0.171875 C 2.460938 -0.171875 2.691406 -0.175781 2.859375 -0.1875 C 3.023438 -0.207031 3.175781 -0.265625 3.3125 -0.359375 C 3.457031 -0.453125 3.5625 -0.550781 3.625 -0.65625 C 3.6875 -0.757812 3.738281 -0.945312 3.78125 -1.21875 C 3.832031 -1.539062 3.859375 -2.210938 3.859375 -3.234375 L 3.859375 -9.75 C 1.546875 -9.75 0.390625 -9.164062 0.390625 -8 L 0.21875 -7.96875 Z M 0.21875 -10.03125 "/></g></g></g><g fill="#d6be74" fill-opacity="1"><g transform="translate(171.72137, 193.58678)"><g><path d="M 6.34375 -0.171875 C 6.707031 -0.171875 6.960938 -0.195312 7.109375 -0.25 C 7.265625 -0.3125 7.34375 -0.460938 7.34375 -0.703125 C 7.34375 -0.941406 7.085938 -1.753906 6.578125 -3.140625 L 2.203125 -3.140625 C 1.796875 -1.921875 1.59375 -1.15625 1.59375 -0.84375 C 1.59375 -0.539062 1.671875 -0.351562 1.828125 -0.28125 C 1.984375 -0.207031 2.265625 -0.171875 2.671875 -0.171875 L 2.703125 0 L -0.515625 0 L -0.484375 -0.171875 C -0.210938 -0.171875 0 -0.191406 0.15625 -0.234375 C 0.320312 -0.285156 0.492188 -0.414062 0.671875 -0.625 C 0.859375 -0.832031 1.035156 -1.128906 1.203125 -1.515625 C 1.378906 -1.910156 1.585938 -2.460938 1.828125 -3.171875 L 3.109375 -6.84375 C 3.554688 -8.144531 3.78125 -8.929688 3.78125 -9.203125 C 3.78125 -9.484375 3.710938 -9.664062 3.578125 -9.75 C 3.441406 -9.832031 3.1875 -9.875 2.8125 -9.875 L 2.78125 -10.03125 L 5.140625 -10.03125 L 7.6875 -3.171875 C 8.113281 -2.035156 8.398438 -1.3125 8.546875 -1 C 8.691406 -0.695312 8.832031 -0.503906 8.96875 -0.421875 C 9.207031 -0.253906 9.507812 -0.171875 9.875 -0.171875 L 9.90625 0 L 6.3125 0 Z M 4.34375 -9.25 L 2.328125 -3.484375 L 6.46875 -3.484375 Z M 4.34375 -9.25 "/></g></g></g><g fill="#d6be74" fill-opacity="1"><g transform="translate(191.05759, 193.58678)"><g><path d="M 9.484375 -6.78125 L 9.484375 -3.96875 C 9.484375 -3.332031 9.40625 -2.765625 9.25 -2.265625 C 9.09375 -1.765625 8.890625 -1.363281 8.640625 -1.0625 C 8.390625 -0.769531 8.09375 -0.53125 7.75 -0.34375 C 7.164062 -0.0195312 6.5 0.140625 5.75 0.140625 C 3.15625 0.140625 1.859375 -1.179688 1.859375 -3.828125 L 1.859375 -6.796875 C 1.859375 -7.816406 1.828125 -8.507812 1.765625 -8.875 C 1.703125 -9.25 1.613281 -9.484375 1.5 -9.578125 C 1.28125 -9.765625 0.929688 -9.859375 0.453125 -9.859375 L 0.4375 -10.03125 L 4.28125 -10.03125 L 4.25 -9.859375 C 4.019531 -9.859375 3.835938 -9.847656 3.703125 -9.828125 C 3.566406 -9.804688 3.441406 -9.753906 3.328125 -9.671875 C 3.210938 -9.585938 3.128906 -9.488281 3.078125 -9.375 C 3.023438 -9.269531 2.976562 -9.085938 2.9375 -8.828125 C 2.882812 -8.492188 2.859375 -7.816406 2.859375 -6.796875 L 2.859375 -3.75 C 2.859375 -2.53125 3.132812 -1.644531 3.6875 -1.09375 C 4.238281 -0.539062 4.976562 -0.265625 5.90625 -0.265625 C 6.832031 -0.265625 7.597656 -0.5625 8.203125 -1.15625 C 8.816406 -1.757812 9.125 -2.6875 9.125 -3.9375 L 9.125 -6.78125 C 9.125 -7.726562 9.082031 -8.410156 9 -8.828125 C 8.914062 -9.253906 8.773438 -9.53125 8.578125 -9.65625 C 8.378906 -9.789062 8.046875 -9.859375 7.578125 -9.859375 L 7.546875 -10.03125 L 11.078125 -10.03125 L 11.046875 -9.859375 C 10.578125 -9.859375 10.242188 -9.789062 10.046875 -9.65625 C 9.847656 -9.53125 9.703125 -9.253906 9.609375 -8.828125 C 9.523438 -8.410156 9.484375 -7.726562 9.484375 -6.78125 Z M 9.484375 -6.78125 "/></g></g></g><g fill="#d6be74" fill-opacity="1"><g transform="translate(212.356914, 193.58678)"><g><path d="M 8.03125 0 C 7.800781 0 7.566406 -0.117188 7.328125 -0.359375 C 7.097656 -0.609375 6.890625 -0.910156 6.703125 -1.265625 C 6.515625 -1.628906 6.296875 -2.023438 6.046875 -2.453125 C 5.796875 -2.878906 5.546875 -3.28125 5.296875 -3.65625 C 5.046875 -4.03125 4.726562 -4.34375 4.34375 -4.59375 C 3.96875 -4.851562 3.566406 -4.992188 3.140625 -5.015625 L 3.140625 -3.234375 C 3.140625 -2.203125 3.171875 -1.503906 3.234375 -1.140625 C 3.296875 -0.773438 3.382812 -0.539062 3.5 -0.4375 C 3.726562 -0.257812 4.082031 -0.171875 4.5625 -0.171875 L 4.578125 0 L 0.75 0 L 0.78125 -0.171875 C 1.238281 -0.171875 1.582031 -0.257812 1.8125 -0.4375 C 1.988281 -0.570312 2.09375 -1.035156 2.125 -1.828125 C 2.144531 -2.148438 2.15625 -2.617188 2.15625 -3.234375 L 2.15625 -6.859375 C 2.15625 -7.921875 2.125 -8.625 2.0625 -8.96875 C 2.007812 -9.3125 1.925781 -9.523438 1.8125 -9.609375 C 1.582031 -9.773438 1.238281 -9.859375 0.78125 -9.859375 L 0.75 -10.03125 L 4.0625 -10.03125 C 6.476562 -10.03125 7.6875 -9.21875 7.6875 -7.59375 C 7.6875 -6.894531 7.4375 -6.304688 6.9375 -5.828125 C 6.445312 -5.359375 5.851562 -5.085938 5.15625 -5.015625 C 5.851562 -4.609375 6.5 -3.851562 7.09375 -2.75 C 7.320312 -2.320312 7.566406 -1.910156 7.828125 -1.515625 C 8.390625 -0.617188 9.113281 -0.171875 10 -0.171875 L 10.03125 0 Z M 3.140625 -9.703125 L 3.140625 -5.296875 L 4.046875 -5.296875 C 4.765625 -5.296875 5.363281 -5.484375 5.84375 -5.859375 C 6.320312 -6.234375 6.5625 -6.785156 6.5625 -7.515625 C 6.5625 -8.972656 5.726562 -9.703125 4.0625 -9.703125 Z M 3.140625 -9.703125 "/></g></g></g><g fill="#d6be74" fill-opacity="1"><g transform="translate(231.621477, 193.58678)"><g><path d="M 6.34375 -0.171875 C 6.707031 -0.171875 6.960938 -0.195312 7.109375 -0.25 C 7.265625 -0.3125 7.34375 -0.460938 7.34375 -0.703125 C 7.34375 -0.941406 7.085938 -1.753906 6.578125 -3.140625 L 2.203125 -3.140625 C 1.796875 -1.921875 1.59375 -1.15625 1.59375 -0.84375 C 1.59375 -0.539062 1.671875 -0.351562 1.828125 -0.28125 C 1.984375 -0.207031 2.265625 -0.171875 2.671875 -0.171875 L 2.703125 0 L -0.515625 0 L -0.484375 -0.171875 C -0.210938 -0.171875 0 -0.191406 0.15625 -0.234375 C 0.320312 -0.285156 0.492188 -0.414062 0.671875 -0.625 C 0.859375 -0.832031 1.035156 -1.128906 1.203125 -1.515625 C 1.378906 -1.910156 1.585938 -2.460938 1.828125 -3.171875 L 3.109375 -6.84375 C 3.554688 -8.144531 3.78125 -8.929688 3.78125 -9.203125 C 3.78125 -9.484375 3.710938 -9.664062 3.578125 -9.75 C 3.441406 -9.832031 3.1875 -9.875 2.8125 -9.875 L 2.78125 -10.03125 L 5.140625 -10.03125 L 7.6875 -3.171875 C 8.113281 -2.035156 8.398438 -1.3125 8.546875 -1 C 8.691406 -0.695312 8.832031 -0.503906 8.96875 -0.421875 C 9.207031 -0.253906 9.507812 -0.171875 9.875 -0.171875 L 9.90625 0 L 6.3125 0 Z M 4.34375 -9.25 L 2.328125 -3.484375 L 6.46875 -3.484375 Z M 4.34375 -9.25 "/></g></g></g><g fill="#d6be74" fill-opacity="1"><g transform="translate(250.957697, 193.58678)"><g><path d="M 9.703125 -6.8125 L 9.703125 0.078125 L 9.25 0.078125 L 2.5 -8.453125 L 2.5 -3.265625 C 2.5 -2.304688 2.539062 -1.617188 2.625 -1.203125 C 2.71875 -0.785156 2.863281 -0.507812 3.0625 -0.375 C 3.257812 -0.238281 3.59375 -0.171875 4.0625 -0.171875 L 4.078125 0 L 0.5625 0 L 0.59375 -0.171875 C 1.050781 -0.171875 1.378906 -0.238281 1.578125 -0.375 C 1.773438 -0.507812 1.921875 -0.785156 2.015625 -1.203125 C 2.109375 -1.617188 2.15625 -2.304688 2.15625 -3.265625 L 2.15625 -6.8125 C 2.15625 -7.757812 2.109375 -8.441406 2.015625 -8.859375 C 1.921875 -9.273438 1.773438 -9.546875 1.578125 -9.671875 C 1.390625 -9.804688 1.0625 -9.875 0.59375 -9.875 L 0.5625 -10.03125 L 2.5 -10.03125 L 9.34375 -1.5 L 9.34375 -6.8125 C 9.34375 -7.75 9.296875 -8.425781 9.203125 -8.84375 C 9.109375 -9.269531 8.960938 -9.546875 8.765625 -9.671875 C 8.566406 -9.804688 8.234375 -9.875 7.765625 -9.875 L 7.734375 -10.03125 L 11.296875 -10.03125 L 11.265625 -9.875 C 10.796875 -9.875 10.457031 -9.804688 10.25 -9.671875 C 10.050781 -9.546875 9.910156 -9.269531 9.828125 -8.84375 C 9.742188 -8.425781 9.703125 -7.75 9.703125 -6.8125 Z M 9.703125 -6.8125 "/></g></g></g><g fill="#d6be74" fill-opacity="1"><g transform="translate(272.758563, 193.58678)"><g><path d="M 0.21875 -10.03125 L 8.46875 -10.03125 L 8.46875 -7.96875 L 8.328125 -8 C 8.328125 -9.164062 7.171875 -9.75 4.859375 -9.75 L 4.859375 -3.234375 C 4.859375 -1.828125 4.9375 -0.96875 5.09375 -0.65625 C 5.15625 -0.539062 5.253906 -0.441406 5.390625 -0.359375 C 5.535156 -0.273438 5.691406 -0.222656 5.859375 -0.203125 C 6.023438 -0.179688 6.25 -0.171875 6.53125 -0.171875 L 6.5625 0 L 2.15625 0 L 2.171875 -0.171875 C 2.460938 -0.171875 2.691406 -0.175781 2.859375 -0.1875 C 3.023438 -0.207031 3.175781 -0.265625 3.3125 -0.359375 C 3.457031 -0.453125 3.5625 -0.550781 3.625 -0.65625 C 3.6875 -0.757812 3.738281 -0.945312 3.78125 -1.21875 C 3.832031 -1.539062 3.859375 -2.210938 3.859375 -3.234375 L 3.859375 -9.75 C 1.546875 -9.75 0.390625 -9.164062 0.390625 -8 L 0.21875 -7.96875 Z M 0.21875 -10.03125 "/></g></g></g><g fill="#d6be74" fill-opacity="1"><g transform="translate(108.815975, 213.415483)"><g/></g></g><g fill="#d6be74" fill-opacity="1"><g transform="translate(122.357843, 213.415483)"><g><path d="M 9.578125 -2.671875 L 9.578125 -0.90625 C 9.109375 -0.601562 8.535156 -0.351562 7.859375 -0.15625 C 7.179688 0.0390625 6.492188 0.140625 5.796875 0.140625 C 4.285156 0.140625 3.0625 -0.347656 2.125 -1.328125 C 1.1875 -2.316406 0.71875 -3.546875 0.71875 -5.015625 C 0.71875 -6.484375 1.164062 -7.707031 2.0625 -8.6875 C 2.96875 -9.664062 4.1875 -10.15625 5.71875 -10.15625 C 6.382812 -10.15625 7.054688 -10.0625 7.734375 -9.875 C 8.410156 -9.6875 8.910156 -9.488281 9.234375 -9.28125 L 9.234375 -7.453125 L 9.078125 -7.484375 C 8.972656 -8.242188 8.597656 -8.820312 7.953125 -9.21875 C 7.316406 -9.625 6.570312 -9.828125 5.71875 -9.828125 C 4.5 -9.828125 3.566406 -9.382812 2.921875 -8.5 C 2.285156 -7.625 1.96875 -6.460938 1.96875 -5.015625 C 1.96875 -3.566406 2.300781 -2.398438 2.96875 -1.515625 C 3.632812 -0.628906 4.601562 -0.1875 5.875 -0.1875 C 7.15625 -0.1875 8.054688 -0.585938 8.578125 -1.390625 L 8.578125 -2.5 C 8.578125 -3.5625 8.515625 -4.210938 8.390625 -4.453125 C 8.273438 -4.703125 7.929688 -4.828125 7.359375 -4.828125 L 7.34375 -4.96875 L 10.84375 -4.96875 L 10.8125 -4.828125 C 10.269531 -4.828125 9.925781 -4.695312 9.78125 -4.4375 C 9.644531 -4.1875 9.578125 -3.597656 9.578125 -2.671875 Z M 9.578125 -2.671875 "/></g></g></g><g fill="#d6be74" fill-opacity="1"><g transform="translate(143.700161, 213.415483)"><g><path d="M 5.484375 -10.15625 C 7.023438 -10.15625 8.253906 -9.6875 9.171875 -8.75 C 10.097656 -7.8125 10.5625 -6.59375 10.5625 -5.09375 C 10.5625 -3.59375 10.113281 -2.34375 9.21875 -1.34375 C 8.320312 -0.351562 7.109375 0.140625 5.578125 0.140625 C 4.054688 0.140625 2.828125 -0.359375 1.890625 -1.359375 C 0.960938 -2.359375 0.5 -3.601562 0.5 -5.09375 C 0.5 -6.59375 0.945312 -7.8125 1.84375 -8.75 C 2.738281 -9.6875 3.953125 -10.15625 5.484375 -10.15625 Z M 5.578125 -0.1875 C 6.796875 -0.1875 7.722656 -0.628906 8.359375 -1.515625 C 8.992188 -2.398438 9.3125 -3.5625 9.3125 -5 C 9.3125 -6.445312 8.976562 -7.613281 8.3125 -8.5 C 7.644531 -9.382812 6.703125 -9.828125 5.484375 -9.828125 C 4.265625 -9.828125 3.335938 -9.382812 2.703125 -8.5 C 2.066406 -7.625 1.75 -6.460938 1.75 -5.015625 C 1.75 -3.566406 2.082031 -2.398438 2.75 -1.515625 C 3.414062 -0.628906 4.359375 -0.1875 5.578125 -0.1875 Z M 5.578125 -0.1875 "/></g></g></g><g fill="#d6be74" fill-opacity="1"><g transform="translate(164.712914, 213.415483)"><g><path d="M 9.484375 -6.78125 L 9.484375 -3.96875 C 9.484375 -3.332031 9.40625 -2.765625 9.25 -2.265625 C 9.09375 -1.765625 8.890625 -1.363281 8.640625 -1.0625 C 8.390625 -0.769531 8.09375 -0.53125 7.75 -0.34375 C 7.164062 -0.0195312 6.5 0.140625 5.75 0.140625 C 3.15625 0.140625 1.859375 -1.179688 1.859375 -3.828125 L 1.859375 -6.796875 C 1.859375 -7.816406 1.828125 -8.507812 1.765625 -8.875 C 1.703125 -9.25 1.613281 -9.484375 1.5 -9.578125 C 1.28125 -9.765625 0.929688 -9.859375 0.453125 -9.859375 L 0.4375 -10.03125 L 4.28125 -10.03125 L 4.25 -9.859375 C 4.019531 -9.859375 3.835938 -9.847656 3.703125 -9.828125 C 3.566406 -9.804688 3.441406 -9.753906 3.328125 -9.671875 C 3.210938 -9.585938 3.128906 -9.488281 3.078125 -9.375 C 3.023438 -9.269531 2.976562 -9.085938 2.9375 -8.828125 C 2.882812 -8.492188 2.859375 -7.816406 2.859375 -6.796875 L 2.859375 -3.75 C 2.859375 -2.53125 3.132812 -1.644531 3.6875 -1.09375 C 4.238281 -0.539062 4.976562 -0.265625 5.90625 -0.265625 C 6.832031 -0.265625 7.597656 -0.5625 8.203125 -1.15625 C 8.816406 -1.757812 9.125 -2.6875 9.125 -3.9375 L 9.125 -6.78125 C 9.125 -7.726562 9.082031 -8.410156 9 -8.828125 C 8.914062 -9.253906 8.773438 -9.53125 8.578125 -9.65625 C 8.378906 -9.789062 8.046875 -9.859375 7.578125 -9.859375 L 7.546875 -10.03125 L 11.078125 -10.03125 L 11.046875 -9.859375 C 10.578125 -9.859375 10.242188 -9.789062 10.046875 -9.65625 C 9.847656 -9.53125 9.703125 -9.253906 9.609375 -8.828125 C 9.523438 -8.410156 9.484375 -7.726562 9.484375 -6.78125 Z M 9.484375 -6.78125 "/></g></g></g><g fill="#d6be74" fill-opacity="1"><g transform="translate(186.012241, 213.415483)"><g><path d="M 8.03125 0 C 7.800781 0 7.566406 -0.117188 7.328125 -0.359375 C 7.097656 -0.609375 6.890625 -0.910156 6.703125 -1.265625 C 6.515625 -1.628906 6.296875 -2.023438 6.046875 -2.453125 C 5.796875 -2.878906 5.546875 -3.28125 5.296875 -3.65625 C 5.046875 -4.03125 4.726562 -4.34375 4.34375 -4.59375 C 3.96875 -4.851562 3.566406 -4.992188 3.140625 -5.015625 L 3.140625 -3.234375 C 3.140625 -2.203125 3.171875 -1.503906 3.234375 -1.140625 C 3.296875 -0.773438 3.382812 -0.539062 3.5 -0.4375 C 3.726562 -0.257812 4.082031 -0.171875 4.5625 -0.171875 L 4.578125 0 L 0.75 0 L 0.78125 -0.171875 C 1.238281 -0.171875 1.582031 -0.257812 1.8125 -0.4375 C 1.988281 -0.570312 2.09375 -1.035156 2.125 -1.828125 C 2.144531 -2.148438 2.15625 -2.617188 2.15625 -3.234375 L 2.15625 -6.859375 C 2.15625 -7.921875 2.125 -8.625 2.0625 -8.96875 C 2.007812 -9.3125 1.925781 -9.523438 1.8125 -9.609375 C 1.582031 -9.773438 1.238281 -9.859375 0.78125 -9.859375 L 0.75 -10.03125 L 4.0625 -10.03125 C 6.476562 -10.03125 7.6875 -9.21875 7.6875 -7.59375 C 7.6875 -6.894531 7.4375 -6.304688 6.9375 -5.828125 C 6.445312 -5.359375 5.851562 -5.085938 5.15625 -5.015625 C 5.851562 -4.609375 6.5 -3.851562 7.09375 -2.75 C 7.320312 -2.320312 7.566406 -1.910156 7.828125 -1.515625 C 8.390625 -0.617188 9.113281 -0.171875 10 -0.171875 L 10.03125 0 Z M 3.140625 -9.703125 L 3.140625 -5.296875 L 4.046875 -5.296875 C 4.765625 -5.296875 5.363281 -5.484375 5.84375 -5.859375 C 6.320312 -6.234375 6.5625 -6.785156 6.5625 -7.515625 C 6.5625 -8.972656 5.726562 -9.703125 4.0625 -9.703125 Z M 3.140625 -9.703125 "/></g></g></g><g fill="#d6be74" fill-opacity="1"><g transform="translate(205.276805, 213.415483)"><g><path d="M 11.8125 -6.796875 L 11.8125 -3.234375 C 11.8125 -2.210938 11.84375 -1.515625 11.90625 -1.140625 C 11.96875 -0.773438 12.054688 -0.539062 12.171875 -0.4375 C 12.390625 -0.257812 12.734375 -0.171875 13.203125 -0.171875 L 13.234375 0 L 9.40625 0 L 9.421875 -0.171875 C 9.890625 -0.171875 10.234375 -0.257812 10.453125 -0.4375 C 10.640625 -0.570312 10.75 -1.035156 10.78125 -1.828125 C 10.789062 -2.148438 10.796875 -2.617188 10.796875 -3.234375 L 10.796875 -9.296875 L 6.796875 -0.140625 L 2.65625 -7.890625 L 2.65625 -3.265625 C 2.65625 -2.304688 2.695312 -1.613281 2.78125 -1.1875 C 2.875 -0.769531 3.019531 -0.492188 3.21875 -0.359375 C 3.425781 -0.234375 3.765625 -0.171875 4.234375 -0.171875 L 4.25 0 L 0.734375 0 L 0.765625 -0.171875 C 1.117188 -0.171875 1.378906 -0.195312 1.546875 -0.25 C 1.722656 -0.300781 1.875 -0.441406 2 -0.671875 C 2.125 -0.898438 2.203125 -1.203125 2.234375 -1.578125 C 2.273438 -1.960938 2.296875 -2.523438 2.296875 -3.265625 L 2.296875 -6.78125 C 2.296875 -7.507812 2.273438 -8.066406 2.234375 -8.453125 C 2.203125 -8.835938 2.125 -9.144531 2 -9.375 C 1.875 -9.601562 1.722656 -9.742188 1.546875 -9.796875 C 1.378906 -9.847656 1.117188 -9.875 0.765625 -9.875 L 0.734375 -10.03125 L 2.65625 -10.03125 L 7.078125 -1.671875 L 10.734375 -10.03125 L 13.234375 -10.03125 L 13.203125 -9.875 C 12.734375 -9.875 12.390625 -9.78125 12.171875 -9.59375 C 11.929688 -9.394531 11.8125 -8.460938 11.8125 -6.796875 Z M 11.8125 -6.796875 "/></g></g></g><g fill="#d6be74" fill-opacity="1"><g transform="translate(229.184075, 213.415483)"><g><path d="M 7.9375 0 L 0.71875 0 L 0.75 -0.171875 C 1.226562 -0.171875 1.578125 -0.257812 1.796875 -0.4375 C 2.035156 -0.644531 2.15625 -1.578125 2.15625 -3.234375 L 2.15625 -6.796875 C 2.15625 -7.816406 2.125 -8.515625 2.0625 -8.890625 C 2 -9.265625 1.910156 -9.5 1.796875 -9.59375 C 1.578125 -9.78125 1.226562 -9.875 0.75 -9.875 L 0.71875 -10.03125 L 7.40625 -10.03125 L 7.40625 -7.96875 L 7.234375 -8 C 7.234375 -8.632812 6.894531 -9.078125 6.21875 -9.328125 C 5.550781 -9.578125 4.523438 -9.703125 3.140625 -9.703125 L 3.140625 -5.1875 C 4.054688 -5.1875 4.710938 -5.234375 5.109375 -5.328125 C 5.515625 -5.421875 5.773438 -5.566406 5.890625 -5.765625 C 6.003906 -5.960938 6.0625 -6.289062 6.0625 -6.75 L 6.21875 -6.78125 L 6.21875 -3.296875 L 6.0625 -3.328125 C 6.0625 -3.796875 6.003906 -4.125 5.890625 -4.3125 C 5.773438 -4.5 5.515625 -4.640625 5.109375 -4.734375 C 4.710938 -4.828125 4.054688 -4.875 3.140625 -4.875 L 3.140625 -3.015625 C 3.140625 -2.003906 3.175781 -1.332031 3.25 -1 C 3.320312 -0.664062 3.476562 -0.441406 3.71875 -0.328125 C 6.414062 -0.328125 7.765625 -0.898438 7.765625 -2.046875 L 7.9375 -2.078125 Z M 7.9375 0 "/></g></g></g><g fill="#d6be74" fill-opacity="1"><g transform="translate(247.961452, 213.415483)"><g><path d="M 0.21875 -10.03125 L 8.46875 -10.03125 L 8.46875 -7.96875 L 8.328125 -8 C 8.328125 -9.164062 7.171875 -9.75 4.859375 -9.75 L 4.859375 -3.234375 C 4.859375 -1.828125 4.9375 -0.96875 5.09375 -0.65625 C 5.15625 -0.539062 5.253906 -0.441406 5.390625 -0.359375 C 5.535156 -0.273438 5.691406 -0.222656 5.859375 -0.203125 C 6.023438 -0.179688 6.25 -0.171875 6.53125 -0.171875 L 6.5625 0 L 2.15625 0 L 2.171875 -0.171875 C 2.460938 -0.171875 2.691406 -0.175781 2.859375 -0.1875 C 3.023438 -0.207031 3.175781 -0.265625 3.3125 -0.359375 C 3.457031 -0.453125 3.5625 -0.550781 3.625 -0.65625 C 3.6875 -0.757812 3.738281 -0.945312 3.78125 -1.21875 C 3.832031 -1.539062 3.859375 -2.210938 3.859375 -3.234375 L 3.859375 -9.75 C 1.546875 -9.75 0.390625 -9.164062 0.390625 -8 L 0.21875 -7.96875 Z M 0.21875 -10.03125 "/></g></g></g><path stroke-linecap="round" transform="matrix(0.490075, -0.567738, 0.567738, 0.490075, 254.417244, 164.759814)" fill="none" stroke-linejoin="miter" d="M 0.49758 0.500613 L 62.118639 0.501153 " stroke="#d6be74" stroke-width="1" stroke-opacity="1" stroke-miterlimit="4"/></svg>